# xmcd
#
# Track frame offsets:
#	150
#	23531
#	43475
#	69450
#	84699
#	107178
#	132208
#	150562
#	170707
#	193353
#	218965
#
# Disc length: 3142 seconds
# Revision: 0
# Processed by: cddbd v1.5.2PL0 Copyright (c) Steve Scherf et al.
# Submitted via: dBpowerAMP V12.0
#
DISCID=a10c440b
DTITLE=Kari Bremnes - Norwegian Wood (SACD)
DYEAR=2000
DGENRE=Jazz
TTITLE0=A Lover in Berlin
TTITLE1=Coastal Ship
TTITLE2=Montreal
TTITLE3=My Heart is Pounding like a Hammer
TTITLE4=Birds
TTITLE5=Day
TTITLE6=Wave on Rock
TTITLE7=The Copenhagen Cavern
TTITLE8=Song to a Town
TTITLE9=Riddle Beside another Riddle
TTITLE10=To Give You a Song
EXTD=
EXTT0=
EXTT1=
EXTT2=
EXTT3=
EXTT4=
EXTT5=
EXTT6=
EXTT7=
EXTT8=
EXTT9=
EXTT10=
PLAYORDER=
